<svg width="23" height="23" viewBox="0 0 23 23" fill="none" xmlns="http://www.w3.org/2000/svg">
<path fill-rule="evenodd" clip-rule="evenodd" d="M4.73439 10.3506L1.71388 4.01484C0.657838 1.79974 0.12982 0.692185 0.6464 0.187691C1.16298 -0.316803 2.25773 0.237283 4.44722 1.34545L20.6455 9.54393C22.2173 10.3394 23.0031 10.7372 23 11.3609C22.997 11.9847 22.2072 12.3746 20.6276 13.1545L4.13126 21.2994C1.84158 22.4299 0.696748 22.9952 0.184882 22.4711C-0.326982 21.9469 0.26521 20.8158 1.4496 18.5535L4.68748 12.3689L13.674 12.3722C14.2313 12.3724 14.6833 11.9208 14.6835 11.3634C14.6838 10.8061 14.2321 10.3541 13.6747 10.3539L4.73439 10.3506Z" fill="#222222"/>
</svg>
